<?xml version="1.0" encoding="utf-8"?>
<!-- Generator: Adobe Illustrator 21.0.0, SVG Export Plug-In . SVG Version: 6.00 Build 0)  -->
<svg version="1.1" id="Layer_1" xmlns="http://www.w3.org/2000/svg" xmlns:xlink="http://www.w3.org/1999/xlink" x="0px" y="0px"
	 viewBox="0 0 805.7 136.7" style="enable-background:new 0 0 805.7 136.7;" xml:space="preserve">
<g>
	<path d="M15.3,75c0.3,8.1,7.9,16.3,19.7,16.3c11.7,0,17.7-6.3,18.7-13.5c0.6-9.2-6.5-14-15.7-16.1l-12.5-3.2
		C4.2,52.7,0.9,40.6,0.9,31.8c0-17,15.3-28.4,32.7-28.4c18.3,0,32.3,11.2,32.3,29.4c-3.5,0-11.8,0-15.3,0c0-9.1-7.1-15-17.3-15
		c-9.1,0-17.1,5.5-17.1,13.7c0,3.9,1.4,9.9,13.2,13L42,47.8c20,5.3,28.4,16.6,26.8,30.8C67.4,94.2,54,105.3,35,105.3
		C14.4,105.3,0,91.2,0,75H15.3z"/>
	<path d="M105.6,136.7H90l14.5-36L77.9,36.6h15.8l18.7,46.1l18.9-46.1h15.8L105.6,136.7z"/>
	<path d="M221.2,67.7v36.1h-14.8V66.1c-0.1-10.4-5.8-16.4-13.7-16.4c-8.6,0-17,4.9-17,18v36.1h-14.8V36.6h14.8v10.1
		c4.5-9.4,15.8-11.5,21.2-11.5c10.7,0,17.4,4.9,21.2,13.4c6.3-11.7,16.4-13.4,22.6-13.4c16.6,0,25.9,10.8,25.9,30v38.7h-14.8V66.4
		c0-10.5-5.6-16.7-14.3-16.7C227.7,49.7,221.2,56.9,221.2,67.7z"/>
	<path d="M288,103.8V0h14.8v46.2c4.2-7.3,13.1-11.1,22.6-11.1c18.3,0,33.6,13.5,33.6,35.1c0,21.2-15.6,35-33.7,35
		c-9.1,0-18.3-4-22.5-11.2v9.8H288z M323.6,90.9c11.2,0,20.3-8.5,20.3-20.9s-9.1-20.4-20.3-20.4c-10.1,0-20.6,7.2-20.6,20.4
		C303,83.1,312.6,90.9,323.6,90.9z"/>
	<path d="M372.7,70c0-21.3,16-34.8,35-34.8c19.2,0,35.3,13.5,35.3,34.8s-16.1,35.3-35.3,35.3C388.6,105.3,372.7,91.3,372.7,70z
		 M428.1,70c0-12.4-9.2-20.3-20.4-20.3c-11.1,0-20.3,7.9-20.3,20.3c0,12.7,9.2,20.9,20.3,20.9C418.9,90.9,428.1,82.7,428.1,70z"/>
	<path d="M460.8,0h14.8v103.8h-14.8V0z"/>
	<path d="M505.1,0c5.5,0,9.8,4,9.8,9.4c0,5.3-4.3,9.4-9.8,9.4c-5.3,0-9.9-4-9.9-9.4C495.2,4,499.8,0,505.1,0z M512.5,36.6h-14.7
		v67.2h14.7V36.6z"/>
	<path d="M531.8,52.8c0.9-9.9,11.7-17.7,24-17.7c12,0,23.6,5.5,24.5,19.9h-14.1c-0.6-5-5.2-7.2-9.8-7.2c-3.7,0-8.1,1.4-9.5,3.7
		c-1.2,1.9-1.3,4-0.6,6c0.9,2.6,4.6,4.2,8.2,5.2l10.4,2.6c14.5,3.6,17.6,12.8,17.6,19.6c0,13-11.4,20.3-26.8,20.3
		c-12.5,0-25.5-7.9-25.8-22h13.7c0.7,5.8,5.5,9.6,13.2,9.6c6.8,0,12-3,12-8.1c0-4.3-4.5-6.8-9.4-7.9l-9.1-2.2
		C536.1,70.8,530.9,63.6,531.8,52.8z"/>
	<path d="M663.8,75.5h-53.4c1.4,10.4,9.8,16.8,20.6,16.8c7.5,0,14.8-3.5,18.3-9.6c3.7,1.7,8.2,3.6,12.1,5.3
		c-5.9,11.8-18.4,17.3-31.1,17.3c-19.2,0-34.6-14-34.6-35.3s15.4-34.8,34.6-34.8S664,48.7,664,70C664,71.6,664,74,663.8,75.5z
		 M649.4,64.7c-1.4-10.5-9.1-16.6-19.2-16.6c-10.4,0-18.4,6.2-19.9,16.6H649.4z"/>
	<path d="M695.9,103.8h-14.8V36.6h14.8V52c3.5-12,10.1-16.8,18.4-16.8c4.8,0,9.8,1.2,12,2.6l-2.4,13.7c-3.7-1.9-7.1-2.3-9.9-2.3
		c-12.7,0-18,12.7-18,30.5V103.8z"/>
	<path d="M791,94.2c-4.5,7.3-14.3,11.1-22.6,11.1c-18.1,0-34.1-13.7-34.1-35.1c0-21.5,16-35,34.1-35c8.1,0,18,3.3,22.6,10.9v-9.5
		h14.7v67.2H791V94.2z M770.1,90.9c10.9,0,20.7-7.6,20.7-20.9c0-13.2-10.7-20.4-20.7-20.4c-11.2,0-20.6,8.1-20.6,20.4
		S758.9,90.9,770.1,90.9z"/>
</g>
</svg>
