<?xml version="1.0" encoding="utf-8"?>
<!-- Generator: Adobe Illustrator 21.0.0, SVG Export Plug-In . SVG Version: 6.00 Build 0)  -->
<svg version="1.1" id="Layer_1" xmlns="http://www.w3.org/2000/svg" xmlns:xlink="http://www.w3.org/1999/xlink" x="0px" y="0px"
	 viewBox="0 0 437.1 457.1" style="enable-background:new 0 0 437.1 457.1;" xml:space="preserve">
<style type="text/css">
	.st0{opacity:0.5;fill:url(#SVGID_1_);enable-background:new    ;}
	.st1{opacity:0.5;fill:url(#SVGID_2_);enable-background:new    ;}
	.st2{fill:url(#SVGID_3_);}
	.st3{fill:url(#SVGID_4_);}
</style>
<linearGradient id="SVGID_1_" gradientUnits="userSpaceOnUse" x1="49.1" y1="223.3" x2="264.1" y2="223.3" gradientTransform="matrix(4.489659e-11 -1 1 4.489659e-11 -73.8 385.1)">
	<stop  offset="0" style="stop-color:#0093D6"/>
	<stop  offset="1" style="stop-color:#0074C8"/>
</linearGradient>
<path class="st0" d="M173.9,162.8l-0.2,26.4l18.8,18.8l0.5-87l-87,0.5l18.8,18.8l26.4-0.2l-0.1-0.1h7.1
	c-23.7,16.2-50.6,46.6-50.6,90.9c0,51.3,35.8,94.2,83.7,105.1v-20c-37.1-10.6-64.4-44.7-64.4-85.2c0-36.8,23.4-63.9,47-80.4V162.8
	L173.9,162.8z"/>
<linearGradient id="SVGID_2_" gradientUnits="userSpaceOnUse" x1="49" y1="361.5" x2="264" y2="361.5" gradientTransform="matrix(4.489659e-11 -1 1 4.489659e-11 -73.8 385.1)">
	<stop  offset="0" style="stop-color:#0093D6"/>
	<stop  offset="1" style="stop-color:#0074C8"/>
</linearGradient>
<path class="st1" d="M310.1,226.2c0,36.8-23.4,63.9-47,80.4l0.1-12.4l0.1,0.1l0.2-26.4l-18.8-18.8l-0.5,87l87-0.5l-18.8-18.8
	L286,317l0.1,0.1H279c23.7-16.2,50.6-46.6,50.6-90.9c0-51.3-35.8-94.2-83.7-105.1v20C282.8,151.6,310.1,185.7,310.1,226.2"/>
<linearGradient id="SVGID_3_" gradientUnits="userSpaceOnUse" x1="-72" y1="292.3" x2="104.7" y2="292.3" gradientTransform="matrix(4.489659e-11 -1 1 4.489659e-11 -73.8 385.1)">
	<stop  offset="0" style="stop-color:#0093D6"/>
	<stop  offset="1" style="stop-color:#0074C8"/>
</linearGradient>
<path class="st2" d="M84.8,319.3l53.7,0.3l38.2-38.2L0,280.4l1.1,176.7l38.2-38.2L39,365.1l-0.2,0.2l-0.1-14.4
	c33,48.2,94.7,102.9,184.7,102.9c104.2,0,191.3-72.7,213.6-170.1h-40.6c-21.3,75.4-90.8,130.8-173,130.8
	c-74.8,0-129.8-47.6-163.5-95.6l25.1,0.2L84.8,319.3z"/>
<linearGradient id="SVGID_4_" gradientUnits="userSpaceOnUse" x1="208.4" y1="292.45" x2="385.1" y2="292.45" gradientTransform="matrix(4.489659e-11 -1 1 4.489659e-11 -73.8 385.1)">
	<stop  offset="0" style="stop-color:#0093D6"/>
	<stop  offset="1" style="stop-color:#0074C8"/>
</linearGradient>
<path class="st3" d="M352.3,137.8l-53.7-0.3l-38.2,38.2l176.7,1L436.1,0l-38.2,38.2l0.3,53.7l0.2-0.2l0.1,14.4
	C365.5,57.9,303.8,3.3,213.8,3.3C109.6,3.3,22.5,76,0.2,173.4h40.6C62.2,98,131.7,42.6,213.9,42.6c74.8,0,129.8,47.6,163.5,95.6
	l-25.1-0.1V137.8z"/>
</svg>
